<?xml version="1.0" encoding="UTF-8"?>
<svg xmlns="http://www.w3.org/2000/svg" xmlns:xlink="http://www.w3.org/1999/xlink" viewBox="0 0 40 40" version="1.1" width="40px" height="40px">
<g id="surface1">
<path style=" fill:#B6DCFE;" d="M 14.5 29.832031 L 14.5 28 C 14.5 26.085938 13.332031 24.238281 11.980469 22.101563 C 10.347656 19.523438 8.5 16.601563 8.5 13 C 8.5 6.660156 13.660156 1.5 20 1.5 C 26.339844 1.5 31.5 6.660156 31.5 13 C 31.5 16.601563 29.652344 19.523438 28.019531 22.101563 C 26.667969 24.238281 25.5 26.085938 25.5 28 L 25.5 29.832031 Z "/>
<path style=" fill:#4788C7;" d="M 20 2 C 26.066406 2 31 6.933594 31 13 C 31 16.457031 29.191406 19.316406 27.597656 21.835938 C 26.261719 23.945313 25 25.941406 25 28 L 25 29.332031 L 15 29.332031 L 15 28 C 15 25.941406 13.738281 23.945313 12.402344 21.835938 C 10.808594 19.316406 9 16.457031 9 13 C 9 6.933594 13.933594 2 20 2 M 20 1 C 13.371094 1 8 6.371094 8 13 C 8 19.667969 14 23.957031 14 28 L 14 30.332031 L 26 30.332031 L 26 28 C 26 23.957031 32 19.667969 32 13 C 32 6.371094 26.628906 1 20 1 Z "/>
<path style=" fill:#FFFFFF;" d="M 22.714844 11.335938 C 23.214844 11.335938 23.6875 11.53125 24.042969 11.886719 C 24.777344 12.617188 24.777344 13.808594 24.042969 14.542969 L 22 16.585938 L 22 29 L 18 29 L 18 16.585938 L 15.957031 14.542969 C 15.222656 13.808594 15.222656 12.617188 15.957031 11.886719 C 16.3125 11.53125 16.785156 11.335938 17.285156 11.335938 C 17.789063 11.335938 18.261719 11.53125 18.613281 11.886719 L 19.292969 12.566406 L 20 13.269531 L 20.707031 12.5625 L 21.386719 11.886719 C 21.742188 11.53125 22.210938 11.335938 22.714844 11.335938 M 22.714844 10.335938 C 21.976563 10.335938 21.238281 10.617188 20.679688 11.179688 L 20 11.855469 L 19.320313 11.179688 C 18.757813 10.617188 18.023438 10.335938 17.285156 10.335938 C 16.546875 10.335938 15.8125 10.617188 15.25 11.179688 C 14.125 12.300781 14.125 14.125 15.25 15.25 L 17 17 L 17 30 L 23 30 L 23 17 L 24.75 15.25 C 25.875 14.125 25.875 12.304688 24.75 11.179688 C 24.1875 10.617188 23.449219 10.335938 22.714844 10.335938 Z "/>
<path style=" fill:#4788C7;" d="M 24 35 C 24 37.210938 22.210938 39 20 39 C 17.789063 39 16 37.210938 16 35 C 16 32.789063 17.789063 31 20 31 C 22.210938 31 24 32.789063 24 35 Z "/>
<path style=" fill:#DFF0FE;" d="M 17 36.5 C 15.621094 36.5 14.5 35.378906 14.5 34 L 14.5 28.5 L 25.5 28.5 L 25.5 34 C 25.5 35.378906 24.378906 36.5 23 36.5 Z "/>
<path style=" fill:#4788C7;" d="M 25 29 L 25 34 C 25 35.101563 24.101563 36 23 36 L 17 36 C 15.898438 36 15 35.101563 15 34 L 15 29 L 25 29 M 26 28 L 14 28 L 14 34 C 14 35.65625 15.34375 37 17 37 L 23 37 C 24.65625 37 26 35.65625 26 34 Z "/>
<path style=" fill:#4788C7;" d="M 25.5 31 L 19.5 31 C 19.226563 31 19 30.773438 19 30.5 C 19 30.226563 19.226563 30 19.5 30 L 25.5 30 C 25.773438 30 26 30.226563 26 30.5 C 26 30.773438 25.773438 31 25.5 31 Z "/>
<path style=" fill:#4788C7;" d="M 25.5 33 L 19.5 33 C 19.226563 33 19 32.773438 19 32.5 C 19 32.226563 19.226563 32 19.5 32 L 25.5 32 C 25.773438 32 26 32.226563 26 32.5 C 26 32.773438 25.773438 33 25.5 33 Z "/>
<path style=" fill:#4788C7;" d="M 25.5 35 L 19.5 35 C 19.226563 35 19 34.773438 19 34.5 C 19 34.226563 19.226563 34 19.5 34 L 25.5 34 C 25.773438 34 26 34.226563 26 34.5 C 26 34.773438 25.773438 35 25.5 35 Z "/>
<path style=" fill:#4788C7;" d="M 16.5 33 L 14.5 33 C 14.226563 33 14 32.773438 14 32.5 C 14 32.226563 14.226563 32 14.5 32 L 16.5 32 C 16.773438 32 17 32.226563 17 32.5 C 17 32.773438 16.773438 33 16.5 33 Z "/>
<path style=" fill:#4788C7;" d="M 16.5 35 L 15 35 C 14.449219 35 14 34.550781 14 34 L 16.5 34 C 16.773438 34 17 34.226563 17 34.5 C 17 34.773438 16.773438 35 16.5 35 Z "/>
<path style=" fill:#4788C7;" d="M 16.5 31 L 14.5 31 C 14.226563 31 14 30.773438 14 30.5 C 14 30.226563 14.226563 30 14.5 30 L 16.5 30 C 16.773438 30 17 30.226563 17 30.5 C 17 30.773438 16.773438 31 16.5 31 Z "/>
</g>
</svg>
